<svg width="42" height="37" viewBox="0 0 42 37" fill="none" xmlns="http://www.w3.org/2000/svg">
<g id="vuesax/linear/profile-2user">
<g id="profile-2user">
<path id="Vector" d="M16.0302 16.4236C15.8552 16.4086 15.6452 16.4086 15.4527 16.4236C11.2877 16.3039 7.98022 13.387 7.98022 9.79705C7.98022 6.13227 11.4452 3.15558 15.7502 3.15558C20.0377 3.15558 23.5202 6.13227 23.5202 9.79705C23.5027 13.387 20.1952 16.3039 16.0302 16.4236Z" stroke="#00AC4F" stroke-width="2.625" stroke-linecap="round" stroke-linejoin="round"/>
<path id="Vector_2" d="M28.7172 6.14661C32.1122 6.14661 34.8422 8.49505 34.8422 11.382C34.8422 14.2091 32.2172 16.5127 28.9447 16.6174C28.8047 16.6024 28.6472 16.6024 28.4897 16.6174" stroke="#00AC4F" stroke-width="2.625" stroke-linecap="round" stroke-linejoin="round"/>
<path id="Vector_3" d="M7.2805 21.9425C3.0455 24.3658 3.0455 28.3147 7.2805 30.723C12.093 33.4753 19.9855 33.4753 24.798 30.723C29.033 28.2998 29.033 24.3508 24.798 21.9425C20.003 19.2052 12.1105 19.2052 7.2805 21.9425Z" stroke="#00AC4F" stroke-width="2.625" stroke-linecap="round" stroke-linejoin="round"/>
<path id="Vector_4" d="M32.0947 30.0804C33.3547 29.8561 34.5447 29.4223 35.5247 28.7791C38.2547 27.0289 38.2547 24.142 35.5247 22.3919C34.5622 21.7636 33.3897 21.3448 32.1472 21.1055" stroke="#00AC4F" stroke-width="2.625" stroke-linecap="round" stroke-linejoin="round"/>
</g>
</g>
</svg>
